<svg width="21" height="21" viewBox="0 0 21 21" fill="none" xmlns="http://www.w3.org/2000/svg">
<path d="M10.504 20.8829C16.2102 20.8829 20.836 16.2571 20.836 10.5508C20.836 4.84458 16.2102 0.21875 10.504 0.21875C4.79771 0.21875 0.171875 4.84458 0.171875 10.5508C0.171875 16.2571 4.79771 20.8829 10.504 20.8829Z" fill="white"/>
<path d="M17.0874 12.419C17.0874 8.7876 14.1437 5.84375 10.5125 5.84375C6.88135 5.84375 3.9375 8.7876 3.9375 12.419H5.81594C5.81594 9.82506 7.91881 7.72253 10.5124 7.72253C13.1059 7.72253 15.2088 9.82506 15.2088 12.419" fill="black" fill-opacity="0.1"/>
<path d="M10.9833 15.4275C12.9545 15.4275 14.5525 13.8295 14.5525 11.8583C14.5525 9.88705 12.9545 8.28906 10.9833 8.28906C9.01205 8.28906 7.41406 9.88705 7.41406 11.8583C7.41406 13.8295 9.01205 15.4275 10.9833 15.4275Z" fill="black" fill-opacity="0.1"/>
<path d="M10.5151 14.3974C12.642 14.3974 14.3662 12.6732 14.3662 10.5464C14.3662 8.41949 12.642 6.69531 10.5151 6.69531C8.38824 6.69531 6.66406 8.41949 6.66406 10.5464C6.66406 12.6732 8.38824 14.3974 10.5151 14.3974Z" fill="url(#paint0_linear_1883_859)"/>
<path d="M19.9013 5.83995C17.3155 0.637238 11.0017 -1.48409 5.79878 1.10168C4.17649 1.90794 2.78994 3.11952 1.77344 4.61905L6.00035 11.9453C5.2217 9.47132 6.59674 6.83439 9.07072 6.05591C9.50586 5.91903 9.95864 5.84633 10.4148 5.84012" fill="url(#paint1_linear_1883_859)"/>
<path d="M1.78286 4.625C-1.45232 9.45101 -0.162649 15.9856 4.66319 19.2208C6.15633 20.2216 7.88095 20.8234 9.67264 20.9686L14.0872 13.4543C12.4366 15.4549 9.47667 15.7386 7.47594 14.0878C6.7963 13.5275 6.28814 12.7871 6.0096 11.9514" fill="url(#paint2_linear_1883_859)"/>
<path d="M9.67188 20.9663C15.4654 21.4041 20.5169 17.0625 20.9549 11.2692C21.0962 9.3999 20.7354 7.52679 19.9098 5.84375H10.4234C13.017 5.85561 15.1102 7.96796 15.098 10.5617C15.0932 11.6111 14.7371 12.6286 14.0865 13.452" fill="url(#paint3_linear_1883_859)"/>
<path d="M1.77344 4.6256L6.00035 11.9518C5.68725 10.8982 5.7536 9.76811 6.18785 8.75833L1.96111 4.34375" fill="url(#paint4_linear_1883_859)"/>
<path d="M9.67239 20.9674L14.087 13.4531C13.3904 14.2837 12.428 14.8478 11.363 15.0497L9.48438 20.9674" fill="url(#paint5_linear_1883_859)"/>
<path d="M19.9084 5.84375H10.4219C11.1273 5.84708 11.8229 6.00926 12.457 6.31823C13.0912 6.62721 13.6476 7.07506 14.0849 7.62852L20.0964 6.1256" fill="url(#paint6_linear_1883_859)"/>
<defs>
<linearGradient id="paint0_linear_1883_859" x1="10.5173" y1="6.68921" x2="10.5173" y2="14.3978" gradientUnits="userSpaceOnUse">
<stop stop-color="#81B4E0"/>
<stop offset="1" stop-color="#0C5A94"/>
</linearGradient>
<linearGradient id="paint1_linear_1883_859" x1="10.8374" y1="0.0164553" x2="10.8374" y2="8.56394" gradientUnits="userSpaceOnUse">
<stop stop-color="#F06B59"/>
<stop offset="1" stop-color="#DF2227"/>
</linearGradient>
<linearGradient id="paint2_linear_1883_859" x1="2.55982" y1="18.02" x2="6.88039" y2="10.8816" gradientUnits="userSpaceOnUse">
<stop stop-color="#388B41"/>
<stop offset="1" stop-color="#4CB749"/>
</linearGradient>
<linearGradient id="paint3_linear_1883_859" x1="17.0327" y1="18.7769" x2="12.4302" y2="7.69339" gradientUnits="userSpaceOnUse">
<stop stop-color="#E4B022"/>
<stop offset="0.3" stop-color="#FCD209"/>
</linearGradient>
<linearGradient id="paint4_linear_1883_859" x1="3.98064" y1="11.6702" x2="3.98064" y2="4.15608" gradientUnits="userSpaceOnUse">
<stop stop-opacity="0.15"/>
<stop offset="0.3" stop-opacity="0.06"/>
<stop offset="1" stop-opacity="0.03"/>
</linearGradient>
<linearGradient id="paint5_linear_1883_859" x1="14.3615" y1="14.0947" x2="9.19558" y2="19.3547" gradientUnits="userSpaceOnUse">
<stop stop-opacity="0.15"/>
<stop offset="0.3" stop-opacity="0.06"/>
<stop offset="1" stop-opacity="0.03"/>
</linearGradient>
<linearGradient id="paint6_linear_1883_859" x1="14.2846" y1="15.6079" x2="15.0362" y2="8.18731" gradientUnits="userSpaceOnUse">
<stop stop-opacity="0.15"/>
<stop offset="0.3" stop-opacity="0.06"/>
<stop offset="1" stop-opacity="0.03"/>
</linearGradient>
</defs>
</svg>
