<svg width="22" height="21" viewBox="0 0 22 21" fill="none" xmlns="http://www.w3.org/2000/svg">
<path d="M11.0006 0C4.92275 0 4.08995e-06 4.81772 4.08995e-06 10.7658C-0.00198771 13.0259 0.723572 15.2292 2.07367 17.0628C3.42376 18.8964 5.32977 20.2672 7.52108 20.9805C8.07111 21.0741 8.27792 20.7512 8.27792 20.468C8.27792 20.2129 8.26361 19.3656 8.26361 18.4634C5.50028 18.9619 4.78524 17.8046 4.56523 17.1984C4.44093 16.8884 3.9052 15.9335 3.43768 15.6772C3.05266 15.4759 2.50263 14.9774 3.42337 14.9645C4.29022 14.9505 4.90845 15.7451 5.11526 16.068C6.10531 17.6958 7.68609 17.2383 8.31862 16.9562C8.41542 16.2564 8.70364 15.786 9.02045 15.5168C6.57283 15.2477 4.0152 14.3186 4.0152 10.2006C4.0152 9.02932 4.44093 8.06147 5.14276 7.30786C5.03275 7.03871 4.64774 5.93521 5.25277 4.45491C5.25277 4.45491 6.17351 4.17177 8.27792 5.55733C9.17354 5.31472 10.0988 5.19266 11.0281 5.19452C11.9631 5.19452 12.8981 5.3151 13.7782 5.55733C15.8826 4.15777 16.8033 4.45491 16.8033 4.45491C17.4084 5.93521 17.0234 7.03871 16.9133 7.30786C17.6141 8.06147 18.0409 9.0164 18.0409 10.2006C18.0409 14.3326 15.4701 15.2477 13.0225 15.5168C13.4207 15.8527 13.765 16.4987 13.765 17.5085C13.765 18.9479 13.7507 20.1052 13.7507 20.4691C13.7507 20.7512 13.9575 21.0871 14.5075 20.9794C16.6906 20.2571 18.5875 18.8834 19.9314 17.0514C21.2754 15.2193 21.9988 13.0211 22 10.7658C22 4.81772 17.0773 0 10.9995 0" fill="black"/>
</svg>
